# xmcd CD database file
#
# Track frame offsets:
#	150
#	21845
#	49900
#	75836
#	102796
#	124882
#	148262
#	169729
#
# Disc length: 2578 seconds
#
# Revision: 2
# Processed by: cddbd v1.4b41PL1 Copyright (c) Steve Scherf et al.
# Submitted via: Feurio! 1.50.2ß - http://www.feurio.com
#
DISCID=630a1008
DTITLE=Keith Sweat - Make It Last Forever
DYEAR=1900
DGENRE=
TTITLE0=Something Just Ain't Right
TTITLE1=Right And Wrong Way
TTITLE2=Tell Me It's Me You Want
TTITLE3=I Want Her
TTITLE4=Make It Last Forever
TTITLE5=In The Rain
TTITLE6=How Deep Is Your Love
TTITLE7=Don't Stop Your Love
EXTD=
EXTT0=
EXTT1=
EXTT2=
EXTT3=
EXTT4=
EXTT5=
EXTT6=
EXTT7=
PLAYORDER=
